<svg width="194" height="73" viewBox="0 0 194 73" fill="none" xmlns="http://www.w3.org/2000/svg">
<path d="M61.8971 41.8663L53.7328 46.5899C53.7082 46.5694 53.7487 46.0283 54.1082 44.0278C55.5591 38.3549 61.9577 36.6646 64.2097 35.9132C66.5245 35.1409 67.2813 33.2132 67.6914 32.2415C68.1933 31.0336 68.3168 28.7 69.8804 28.6223C70.7765 28.5777 69.2057 27.9795 68.2157 27.6167C65.8676 26.6066 64.0748 28.6181 61.9416 29.9102C57.9443 31.7177 56.2899 30.091 51.0045 26.1507C55.8162 25.0183 58.6378 24.8096 61.2327 24.5126C64.4763 24.1414 73.2547 23.7997 73.9908 30.2192C74.5796 35.3547 69.5921 38.2109 67.0247 38.997C67.306 39.0846 68.0768 39.732 68.9088 41.6213C69.7409 43.5105 69.3418 45.7697 69.0382 46.6632L61.8971 41.8663Z" fill="#2859DF"/>
<path d="M63.4692 31.5878C63.2936 31.5383 61.5028 31.3367 58.0546 30.9799L53.9328 30.5411C52.5962 30.3969 51.4733 30.284 51.4399 30.2903C51.353 30.3068 51.3412 30.2814 51.9249 31.1693C53.6101 33.7407 55.7916 35.1646 58.4377 35.4195C60.576 35.627 62.9961 34.8711 64.1292 33.6472C64.5432 33.1993 64.7092 32.942 64.6101 32.4916C64.498 31.9818 63.8105 31.6395 63.4692 31.5878Z" fill="#2859DF"/>
<circle cx="66.6008" cy="29.3382" r="0.680011" transform="rotate(-5.3352 66.6008 29.3382)" fill="#2859DF"/>
<path d="M137.518 38.1862C136.78 38.1862 136.153 38.4983 135.635 39.1226C135.124 39.7397 134.869 40.4952 134.869 41.3889C134.869 42.0486 135.057 42.5735 135.433 42.9637C135.809 43.3538 136.309 43.5489 136.933 43.5489C137.72 43.5489 138.366 43.251 138.869 42.6551C139.38 42.0522 139.635 41.2825 139.635 40.3462C139.635 39.6794 139.444 39.1545 139.061 38.7714C138.685 38.3813 138.171 38.1862 137.518 38.1862ZM131.23 41.3464C131.23 39.5234 131.826 38.0266 133.017 36.8562C134.209 35.6858 135.734 35.1006 137.593 35.1006C139.309 35.1006 140.682 35.5865 141.71 36.5583C142.739 37.5301 143.253 38.8282 143.253 40.4526C143.253 42.2543 142.65 43.7369 141.444 44.9002C140.238 46.0635 138.685 46.6452 136.784 46.6452C135.103 46.6452 133.755 46.1628 132.741 45.1981C131.733 44.2334 131.23 42.9495 131.23 41.3464Z" fill="#2859DF"/>
<path d="M123.286 46.6813L125.295 35.8236H123.286L123.777 33.0784H125.786L126.324 29.9608H130.581L130.019 33.0784H132.183L131.693 35.8236H129.529L127.51 46.6813H123.286Z" fill="#2859DF"/>
<path d="M118.334 40.5909C118.334 39.9028 118.121 39.3495 117.695 38.931C117.277 38.5125 116.727 38.3032 116.046 38.3032C115.287 38.3032 114.656 38.5941 114.152 39.1757C113.656 39.7574 113.407 40.488 113.407 41.3676C113.407 42.0344 113.617 42.5735 114.035 42.9849C114.454 43.3892 115 43.5914 115.674 43.5914C116.447 43.5914 117.082 43.3112 117.578 42.7508C118.082 42.1834 118.334 41.4634 118.334 40.5909ZM108.438 50.9544L110.896 35.4623H114.471L114.237 36.9519C114.769 36.3419 115.351 35.8844 115.982 35.5794C116.614 35.2743 117.287 35.1218 118.004 35.1218C119.245 35.1218 120.26 35.5864 121.047 36.5157C121.834 37.4378 122.228 38.6366 122.228 40.1121C122.228 41.9706 121.692 43.5134 120.621 44.7405C119.557 45.9677 118.22 46.5813 116.61 46.5813C115.886 46.5813 115.23 46.4288 114.642 46.1238C114.06 45.8117 113.51 45.3328 112.992 44.6873C112.992 45.0278 112.982 45.3435 112.96 45.6343C112.946 45.9181 112.921 46.1663 112.886 46.3791L112.184 50.9544H108.438Z" fill="#2859DF"/>
<path d="M104.374 39.5588C104.338 38.9771 104.143 38.516 103.789 38.1756C103.434 37.8351 102.966 37.6648 102.384 37.6648C101.859 37.6648 101.387 37.8315 100.969 38.1649C100.558 38.4983 100.245 38.9629 100.033 39.5588H104.374ZM99.7772 41.74V41.9847C99.7772 42.6657 99.951 43.1835 100.299 43.5382C100.646 43.8929 101.153 44.0702 101.82 44.0702C102.288 44.0702 102.728 43.9745 103.14 43.7829C103.558 43.5843 104.005 43.2687 104.48 42.836L106.523 44.9001C105.913 45.4818 105.207 45.9181 104.406 46.2089C103.611 46.4997 102.721 46.6451 101.735 46.6451C99.983 46.6451 98.621 46.1805 97.6492 45.2513C96.6845 44.3149 96.2021 43.0062 96.2021 41.325C96.2021 39.4878 96.7767 37.9947 97.9259 36.8455C99.0821 35.6964 100.575 35.1218 102.405 35.1218C104.065 35.1218 105.399 35.629 106.406 36.6434C107.42 37.6577 107.928 39.0019 107.928 40.676C107.928 40.825 107.906 41.0945 107.864 41.4847C107.85 41.6052 107.839 41.6904 107.832 41.74H99.7772Z" fill="#2859DF"/>
<path d="M94.4359 39.3885C94.0458 38.97 93.6485 38.6579 93.2442 38.4522C92.847 38.2465 92.4284 38.1436 91.9887 38.1436C91.2438 38.1436 90.6196 38.4344 90.116 39.0161C89.6123 39.5907 89.3605 40.3036 89.3605 41.1548C89.3605 41.8641 89.5556 42.4281 89.9457 42.8466C90.3359 43.258 90.8643 43.4637 91.5311 43.4637C91.9567 43.4637 92.3646 43.3892 92.7547 43.2403C93.152 43.0913 93.5457 42.8678 93.9358 42.5699L93.3612 46.1025C92.8576 46.2798 92.3682 46.411 91.8929 46.4961C91.4247 46.5813 90.9636 46.6238 90.5097 46.6238C88.9917 46.6238 87.761 46.1344 86.8175 45.1555C85.8812 44.1695 85.413 42.8856 85.413 41.3037C85.413 39.4524 85.9947 37.9521 87.158 36.803C88.3213 35.6467 89.8464 35.0686 91.7333 35.0686C92.3362 35.0686 92.9108 35.1573 93.457 35.3346C94.0032 35.5049 94.5033 35.7602 94.9573 36.1007L94.4359 39.3885Z" fill="#2859DF"/>
<path d="M80.4547 39.5588C80.4193 38.9771 80.2242 38.516 79.8695 38.1756C79.5149 37.8351 79.0467 37.6648 78.465 37.6648C77.9401 37.6648 77.4684 37.8315 77.0499 38.1649C76.6385 38.4983 76.3263 38.9629 76.1135 39.5588H80.4547ZM75.8582 41.74V41.9847C75.8582 42.6657 76.032 43.1835 76.3795 43.5382C76.7271 43.8929 77.2343 44.0702 77.9011 44.0702C78.3693 44.0702 78.8091 43.9745 79.2205 43.7829C79.639 43.5843 80.0859 43.2687 80.5611 42.836L82.604 44.9001C81.994 45.4818 81.2882 45.9181 80.4867 46.2089C79.6922 46.4997 78.802 46.6451 77.816 46.6451C76.0639 46.6451 74.7019 46.1805 73.7301 45.2513C72.7654 44.3149 72.2831 43.0062 72.2831 41.325C72.2831 39.4878 72.8577 37.9947 74.0068 36.8455C75.163 35.6964 76.6562 35.1218 78.4863 35.1218C80.1462 35.1218 81.4797 35.629 82.487 36.6434C83.5014 37.6577 84.0086 39.0019 84.0086 40.676C84.0086 40.825 83.9873 41.0945 83.9447 41.4847C83.9305 41.6052 83.9199 41.6904 83.9128 41.74H75.8582Z" fill="#2859DF"/>
</svg>
